name Walk1.mot
datacolumns 19
datarows 10
range 1.74100000 1.75000000
endheader

                time	   L_ground_force_vx	   L_ground_force_vy	   L_ground_force_vz	   L_ground_force_px	   L_ground_force_py	   L_ground_force_pz	   R_ground_force_vx	   R_ground_force_vy	   R_ground_force_vz	   R_ground_force_px	   R_ground_force_py	   R_ground_force_pz	   L_ground_torque_x	   L_ground_torque_y	   L_ground_torque_z	   R_ground_torque_x	   R_ground_torque_y	   R_ground_torque_z	
          1.74100000	          0.00000000	          0.00000000	          0.00000000	          0.00000000	          0.00000000	          0.00000000	         21.78656652	        935.20290378	         64.56783731	         -0.10365846	          0.00000000	         -0.03792390	          0.00000000	          0.00000000	          0.00000000	          0.00000000	         -1.16694669	          0.00000000	
          1.74200000	          0.00000000	          0.00000000	          0.00000000	          0.00000000	          0.00000000	          0.00000000	         22.49211315	        937.54117225	         64.83341500	         -0.10348621	          0.00000000	         -0.03796767	          0.00000000	          0.00000000	          0.00000000	          0.00000000	         -1.17042866	          0.00000000	
          1.74300000	          0.00000000	          0.00000000	          0.00000000	          0.00000000	          0.00000000	          0.00000000	         23.23289018	        939.84649420	         65.09151982	         -0.10331980	          0.00000000	         -0.03802365	          0.00000000	          0.00000000	          0.00000000	          0.00000000	         -1.18246338	          0.00000000	
          1.74400000	          0.00000000	          0.00000000	          0.00000000	          0.00000000	          0.00000000	          0.00000000	         23.99324581	        942.14424782	         65.38298014	         -0.10316776	          0.00000000	         -0.03808626	          0.00000000	          0.00000000	          0.00000000	          0.00000000	         -1.20736920	          0.00000000	
          1.74500000	          0.00000000	          0.00000000	          0.00000000	          0.00000000	          0.00000000	          0.00000000	         24.78249199	        944.45238559	         65.73377745	         -0.10301917	          0.00000000	         -0.03812140	          0.00000000	          0.00000000	          0.00000000	          0.00000000	         -1.25333374	          0.00000000	
          1.74600000	          0.00000000	          0.00000000	          0.00000000	          0.00000000	          0.00000000	          0.00000000	         25.62284268	        946.77548673	         66.11525599	         -0.10285504	          0.00000000	         -0.03810478	          0.00000000	          0.00000000	          0.00000000	          0.00000000	         -1.31989586	          0.00000000	
          1.74700000	          0.00000000	          0.00000000	          0.00000000	          0.00000000	          0.00000000	          0.00000000	         26.50890472	        949.13127685	         66.47538222	         -0.10267116	          0.00000000	         -0.03804824	          0.00000000	          0.00000000	          0.00000000	          0.00000000	         -1.39073393	          0.00000000	
          1.74800000	          0.00000000	          0.00000000	          0.00000000	          0.00000000	          0.00000000	          0.00000000	         27.40184523	        951.54284912	         66.79222021	         -0.10248179	          0.00000000	         -0.03798977	          0.00000000	          0.00000000	          0.00000000	          0.00000000	         -1.44559287	          0.00000000	
          1.74900000	          0.00000000	          0.00000000	          0.00000000	          0.00000000	          0.00000000	          0.00000000	         28.25652744	        954.01593039	         67.07693921	         -0.10231053	          0.00000000	         -0.03796550	          0.00000000	          0.00000000	          0.00000000	          0.00000000	         -1.47489920	          0.00000000	
          1.75000000	          0.00000000	          0.00000000	          0.00000000	          0.00000000	          0.00000000	          0.00000000	         29.04980282	        956.54269730	         67.34296351	         -0.10217956	          0.00000000	         -0.03799446	          0.00000000	          0.00000000	          0.00000000	          0.00000000	         -1.48189200	          0.00000000	
